<?xml version="1.0" encoding="UTF-8" standalone="no"?>
<!-- Created with Inkscape (http://www.inkscape.org/) -->

<svg
   xmlns:dc="http://purl.org/dc/elements/1.1/"
   xmlns:cc="http://creativecommons.org/ns#"
   xmlns:rdf="http://www.w3.org/1999/02/22-rdf-syntax-ns#"
   xmlns:svg="http://www.w3.org/2000/svg"
   xmlns="http://www.w3.org/2000/svg"
   xmlns:sodipodi="http://sodipodi.sourceforge.net/DTD/sodipodi-0.dtd"
   xmlns:inkscape="http://www.inkscape.org/namespaces/inkscape"
   width="60"
   height="60"
   viewBox="0 0 15.875 15.875"
   version="1.1"
   id="svg6240"
   inkscape:version="0.92.3 (2405546, 2018-03-11)"
   sodipodi:docname="delete.svg">
  <defs
     id="defs6234" />
  <sodipodi:namedview
     id="base"
     pagecolor="#ffffff"
     bordercolor="#666666"
     borderopacity="1.0"
     inkscape:pageopacity="0.0"
     inkscape:pageshadow="2"
     inkscape:zoom="7.9195959"
     inkscape:cx="28.397351"
     inkscape:cy="33.649016"
     inkscape:document-units="mm"
     inkscape:current-layer="layer1"
     showgrid="false"
     units="px"
     inkscape:window-width="960"
     inkscape:window-height="1025"
     inkscape:window-x="960"
     inkscape:window-y="27"
     inkscape:window-maximized="0"
     showguides="true"
     inkscape:guide-bbox="true"
     inkscape:snap-global="false">
    <sodipodi:guide
       position="15.367998,2.4722431"
       orientation="0,1"
       id="guide6605"
       inkscape:locked="false" />
  </sodipodi:namedview>
  <metadata
     id="metadata6237">
    <rdf:RDF>
      <cc:Work
         rdf:about="">
        <dc:format>image/svg+xml</dc:format>
        <dc:type
           rdf:resource="http://purl.org/dc/dcmitype/StillImage" />
        <dc:title></dc:title>
      </cc:Work>
    </rdf:RDF>
  </metadata>
  <g
     inkscape:label="Layer 1"
     inkscape:groupmode="layer"
     id="layer1"
     transform="translate(0,-281.12498)">
    <g
       id="g5042"
       transform="matrix(0.22640197,0,0,0.22640197,4.3150685,287.20529)"
       style="opacity:0.50199998;fill:#ffffff;fill-opacity:1">
      <g
         id="g4982"
         style="fill:#ffffff;fill-opacity:1">
        <g
           id="trash"
           style="fill:#ffffff;fill-opacity:1">
          <path
             id="path4973"
             d="M 29.98,6.818 C 29.884,5.248 28.593,4.002 27,4.002 h -3 v -1 V 3 C 24,1.343 22.656,0 21,0 H 11 C 9.343,0 8,1.343 8,3 v 10e-4 1 H 5 c -1.595,0 -2.885,1.246 -2.981,2.816 H 2 V 8 9 c 0,1.104 0.896,2 2,2 v 0 17 c 0,2.209 1.791,4 4,4 h 16 c 2.209,0 4,-1.791 4,-4 v -17 0 c 1.104,0 2,-0.896 2,-2 V 8 6.818 Z M 10,3.001 c 0,-0.553 0.447,-1 1,-1 h 10 c 0.553,0 1,0.447 1,1 v 1 H 10 Z m 16,25 c 0,1.102 -0.898,2 -2,2 H 8 c -1.103,0 -2,-0.898 -2,-2 v -17 H 26 Z M 28,8 V 9 H 4 V 8 7.001 c 0,-0.553 0.447,-1 1,-1 h 22 c 0.553,0 1,0.447 1,1 z"
             style="fill:#ffffff;fill-opacity:1"
             inkscape:connector-curvature="0" />
          <path
             id="path4975"
             d="m 9,28.005 h 2 c 0.553,0 1,-0.447 1,-1 v -13 c 0,-0.553 -0.447,-1 -1,-1 H 9 c -0.553,0 -1,0.447 -1,1 v 13 c 0,0.553 0.447,1 1,1 z M 9,14.004 h 2 v 13 H 9 Z"
             style="fill:#ffffff;fill-opacity:1"
             inkscape:connector-curvature="0" />
          <path
             id="path4977"
             d="m 15,28.005 h 2 c 0.553,0 1,-0.447 1,-1 v -13 c 0,-0.553 -0.447,-1 -1,-1 h -2 c -0.553,0 -1,0.447 -1,1 v 13 c 0,0.553 0.447,1 1,1 z m 0,-14.001 h 2 v 13 h -2 z"
             style="fill:#ffffff;fill-opacity:1"
             inkscape:connector-curvature="0" />
          <path
             id="path4979"
             d="m 21,28.005 h 2 c 0.553,0 1,-0.447 1,-1 v -13 c 0,-0.553 -0.447,-1 -1,-1 h -2 c -0.553,0 -1,0.447 -1,1 v 13 c 0,0.553 0.447,1 1,1 z m 0,-14.001 h 2 v 13 h -2 z"
             style="fill:#ffffff;fill-opacity:1"
             inkscape:connector-curvature="0" />
        </g>
      </g>
      <g
         id="g4984"
         style="fill:#ffffff;fill-opacity:1" />
      <g
         id="g4986"
         style="fill:#ffffff;fill-opacity:1" />
      <g
         id="g4988"
         style="fill:#ffffff;fill-opacity:1" />
      <g
         id="g4990"
         style="fill:#ffffff;fill-opacity:1" />
      <g
         id="g4992"
         style="fill:#ffffff;fill-opacity:1" />
      <g
         id="g4994"
         style="fill:#ffffff;fill-opacity:1" />
      <g
         id="g4996"
         style="fill:#ffffff;fill-opacity:1" />
      <g
         id="g4998"
         style="fill:#ffffff;fill-opacity:1" />
      <g
         id="g5000"
         style="fill:#ffffff;fill-opacity:1" />
      <g
         id="g5002"
         style="fill:#ffffff;fill-opacity:1" />
      <g
         id="g5004"
         style="fill:#ffffff;fill-opacity:1" />
      <g
         id="g5006"
         style="fill:#ffffff;fill-opacity:1" />
      <g
         id="g5008"
         style="fill:#ffffff;fill-opacity:1" />
      <g
         id="g5010"
         style="fill:#ffffff;fill-opacity:1" />
      <g
         id="g5012"
         style="fill:#ffffff;fill-opacity:1" />
    </g>
    <g
       style="fill:#5c3738;fill-opacity:1"
       transform="matrix(0.22640197,0,0,0.22640197,4.3150685,287.32222)"
       id="g6098">
      <g
         style="fill:#5c3738;fill-opacity:1"
         id="g6066">
        <g
           style="fill:#5c3738;fill-opacity:1"
           id="g6064">
          <path
             inkscape:connector-curvature="0"
             style="fill:#5c3738;fill-opacity:1"
             d="M 29.98,6.818 C 29.884,5.248 28.593,4.002 27,4.002 h -3 v -1 V 3 C 24,1.343 22.656,0 21,0 H 11 C 9.343,0 8,1.343 8,3 v 10e-4 1 H 5 c -1.595,0 -2.885,1.246 -2.981,2.816 H 2 V 8 9 c 0,1.104 0.896,2 2,2 v 0 17 c 0,2.209 1.791,4 4,4 h 16 c 2.209,0 4,-1.791 4,-4 v -17 0 c 1.104,0 2,-0.896 2,-2 V 8 6.818 Z M 10,3.001 c 0,-0.553 0.447,-1 1,-1 h 10 c 0.553,0 1,0.447 1,1 v 1 H 10 Z m 16,25 c 0,1.102 -0.898,2 -2,2 H 8 c -1.103,0 -2,-0.898 -2,-2 v -17 H 26 Z M 28,8 V 9 H 4 V 8 7.001 c 0,-0.553 0.447,-1 1,-1 h 22 c 0.553,0 1,0.447 1,1 z"
             id="path6056" />
          <path
             inkscape:connector-curvature="0"
             style="fill:#5c3738;fill-opacity:1"
             d="m 9,28.005 h 2 c 0.553,0 1,-0.447 1,-1 v -13 c 0,-0.553 -0.447,-1 -1,-1 H 9 c -0.553,0 -1,0.447 -1,1 v 13 c 0,0.553 0.447,1 1,1 z M 9,14.004 h 2 v 13 H 9 Z"
             id="path6058" />
          <path
             inkscape:connector-curvature="0"
             style="fill:#5c3738;fill-opacity:1"
             d="m 15,28.005 h 2 c 0.553,0 1,-0.447 1,-1 v -13 c 0,-0.553 -0.447,-1 -1,-1 h -2 c -0.553,0 -1,0.447 -1,1 v 13 c 0,0.553 0.447,1 1,1 z m 0,-14.001 h 2 v 13 h -2 z"
             id="path6060" />
          <path
             inkscape:connector-curvature="0"
             style="fill:#5c3738;fill-opacity:1"
             d="m 21,28.005 h 2 c 0.553,0 1,-0.447 1,-1 v -13 c 0,-0.553 -0.447,-1 -1,-1 h -2 c -0.553,0 -1,0.447 -1,1 v 13 c 0,0.553 0.447,1 1,1 z m 0,-14.001 h 2 v 13 h -2 z"
             id="path6062" />
        </g>
      </g>
      <g
         style="fill:#5c3738;fill-opacity:1"
         id="g6068" />
      <g
         style="fill:#5c3738;fill-opacity:1"
         id="g6070" />
      <g
         style="fill:#5c3738;fill-opacity:1"
         id="g6072" />
      <g
         style="fill:#5c3738;fill-opacity:1"
         id="g6074" />
      <g
         style="fill:#5c3738;fill-opacity:1"
         id="g6076" />
      <g
         style="fill:#5c3738;fill-opacity:1"
         id="g6078" />
      <g
         style="fill:#5c3738;fill-opacity:1"
         id="g6080" />
      <g
         style="fill:#5c3738;fill-opacity:1"
         id="g6082" />
      <g
         style="fill:#5c3738;fill-opacity:1"
         id="g6084" />
      <g
         style="fill:#5c3738;fill-opacity:1"
         id="g6086" />
      <g
         style="fill:#5c3738;fill-opacity:1"
         id="g6088" />
      <g
         style="fill:#5c3738;fill-opacity:1"
         id="g6090" />
      <g
         style="fill:#5c3738;fill-opacity:1"
         id="g6092" />
      <g
         style="fill:#5c3738;fill-opacity:1"
         id="g6094" />
      <g
         style="fill:#5c3738;fill-opacity:1"
         id="g6096" />
    </g>
  </g>
</svg>
