<?xml version="1.0" encoding="UTF-8" standalone="no"?>
<!-- Created with Inkscape (http://www.inkscape.org/) -->

<svg
   xmlns:dc="http://purl.org/dc/elements/1.1/"
   xmlns:cc="http://creativecommons.org/ns#"
   xmlns:rdf="http://www.w3.org/1999/02/22-rdf-syntax-ns#"
   xmlns:svg="http://www.w3.org/2000/svg"
   xmlns="http://www.w3.org/2000/svg"
   xmlns:sodipodi="http://sodipodi.sourceforge.net/DTD/sodipodi-0.dtd"
   xmlns:inkscape="http://www.inkscape.org/namespaces/inkscape"
   width="60"
   height="60"
   viewBox="0 0 15.875 15.875"
   version="1.1"
   id="svg6240"
   inkscape:version="0.92.3 (2405546, 2018-03-11)"
   sodipodi:docname="edit.svg">
  <defs
     id="defs6234" />
  <sodipodi:namedview
     id="base"
     pagecolor="#ffffff"
     bordercolor="#666666"
     borderopacity="1.0"
     inkscape:pageopacity="0.0"
     inkscape:pageshadow="2"
     inkscape:zoom="7.9195959"
     inkscape:cx="28.397351"
     inkscape:cy="33.649016"
     inkscape:document-units="mm"
     inkscape:current-layer="layer1"
     showgrid="false"
     units="px"
     inkscape:window-width="960"
     inkscape:window-height="1025"
     inkscape:window-x="960"
     inkscape:window-y="27"
     inkscape:window-maximized="0"
     showguides="true"
     inkscape:guide-bbox="true"
     inkscape:snap-global="false">
    <sodipodi:guide
       position="15.367998,2.4722431"
       orientation="0,1"
       id="guide6605"
       inkscape:locked="false" />
  </sodipodi:namedview>
  <metadata
     id="metadata6237">
    <rdf:RDF>
      <cc:Work
         rdf:about="">
        <dc:format>image/svg+xml</dc:format>
        <dc:type
           rdf:resource="http://purl.org/dc/dcmitype/StillImage" />
        <dc:title></dc:title>
      </cc:Work>
    </rdf:RDF>
  </metadata>
  <g
     inkscape:label="Layer 1"
     inkscape:groupmode="layer"
     id="layer1"
     transform="translate(0,-281.12498)">
    <g
       id="g5105"
       transform="matrix(0.1620848,0,0,0.1620848,4.0126651,286.56864)"
       style="opacity:0.50199998;fill:#ffffff;fill-opacity:1">
      <g
         id="g5048"
         style="fill:#ffffff;fill-opacity:1">
        <g
           id="g5046"
           style="fill:#ffffff;fill-opacity:1">
          <path
             id="path5044"
             d="M 47.773,19.34 28.883,0.45 C 28.231,-0.203 27.105,-0.137 26.369,0.598 L 0.804,26.164 C 0.07,26.898 0.003,28.023 0.656,28.678 L 19.547,47.57 c 0.223,0.223 0.507,0.33 0.805,0.388 0.33,0.291 0.76,0.473 1.234,0.473 h 22.832 c 1.039,0 1.882,-0.843 1.882,-1.882 0,-1.038 -0.843,-1.883 -1.882,-1.883 H 24.813 L 47.625,21.854 c 0.734,-0.736 0.802,-1.861 0.148,-2.514 z M 29.709,35.039 13.185,18.514 10.525,21.174 27.049,37.7 21.025,43.723 4.499,27.199 27.403,4.294 43.93,20.819 Z"
             inkscape:connector-curvature="0"
             style="fill:#ffffff;fill-opacity:1" />
        </g>
      </g>
      <g
         id="g5050"
         style="fill:#ffffff;fill-opacity:1" />
      <g
         id="g5052"
         style="fill:#ffffff;fill-opacity:1" />
      <g
         id="g5054"
         style="fill:#ffffff;fill-opacity:1" />
      <g
         id="g5056"
         style="fill:#ffffff;fill-opacity:1" />
      <g
         id="g5058"
         style="fill:#ffffff;fill-opacity:1" />
      <g
         id="g5060"
         style="fill:#ffffff;fill-opacity:1" />
      <g
         id="g5062"
         style="fill:#ffffff;fill-opacity:1" />
      <g
         id="g5064"
         style="fill:#ffffff;fill-opacity:1" />
      <g
         id="g5066"
         style="fill:#ffffff;fill-opacity:1" />
      <g
         id="g5068"
         style="fill:#ffffff;fill-opacity:1" />
      <g
         id="g5070"
         style="fill:#ffffff;fill-opacity:1" />
      <g
         id="g5072"
         style="fill:#ffffff;fill-opacity:1" />
      <g
         id="g5074"
         style="fill:#ffffff;fill-opacity:1" />
      <g
         id="g5076"
         style="fill:#ffffff;fill-opacity:1" />
      <g
         id="g5078"
         style="fill:#ffffff;fill-opacity:1" />
    </g>
    <g
       style="fill:#5c3738;fill-opacity:1"
       transform="matrix(0.1620848,0,0,0.1620848,4.0126651,286.68557)"
       id="g6136">
      <g
         style="fill:#5c3738;fill-opacity:1"
         id="g6104">
        <g
           style="fill:#5c3738;fill-opacity:1"
           id="g6102">
          <path
             style="fill:#5c3738;fill-opacity:1"
             inkscape:connector-curvature="0"
             d="M 47.773,19.34 28.883,0.45 C 28.231,-0.203 27.105,-0.137 26.369,0.598 L 0.804,26.164 C 0.07,26.898 0.003,28.023 0.656,28.678 L 19.547,47.57 c 0.223,0.223 0.507,0.33 0.805,0.388 0.33,0.291 0.76,0.473 1.234,0.473 h 22.832 c 1.039,0 1.882,-0.843 1.882,-1.882 0,-1.038 -0.843,-1.883 -1.882,-1.883 H 24.813 L 47.625,21.854 c 0.734,-0.736 0.802,-1.861 0.148,-2.514 z M 29.709,35.039 13.185,18.514 10.525,21.174 27.049,37.7 21.025,43.723 4.499,27.199 27.403,4.294 43.93,20.819 Z"
             id="path6100" />
        </g>
      </g>
      <g
         style="fill:#5c3738;fill-opacity:1"
         id="g6106" />
      <g
         style="fill:#5c3738;fill-opacity:1"
         id="g6108" />
      <g
         style="fill:#5c3738;fill-opacity:1"
         id="g6110" />
      <g
         style="fill:#5c3738;fill-opacity:1"
         id="g6112" />
      <g
         style="fill:#5c3738;fill-opacity:1"
         id="g6114" />
      <g
         style="fill:#5c3738;fill-opacity:1"
         id="g6116" />
      <g
         style="fill:#5c3738;fill-opacity:1"
         id="g6118" />
      <g
         style="fill:#5c3738;fill-opacity:1"
         id="g6120" />
      <g
         style="fill:#5c3738;fill-opacity:1"
         id="g6122" />
      <g
         style="fill:#5c3738;fill-opacity:1"
         id="g6124" />
      <g
         style="fill:#5c3738;fill-opacity:1"
         id="g6126" />
      <g
         style="fill:#5c3738;fill-opacity:1"
         id="g6128" />
      <g
         style="fill:#5c3738;fill-opacity:1"
         id="g6130" />
      <g
         style="fill:#5c3738;fill-opacity:1"
         id="g6132" />
      <g
         style="fill:#5c3738;fill-opacity:1"
         id="g6134" />
    </g>
  </g>
</svg>
