<?xml version="1.0" encoding="UTF-8" standalone="no"?>
<!-- Created with Inkscape (http://www.inkscape.org/) -->

<svg
   xmlns:dc="http://purl.org/dc/elements/1.1/"
   xmlns:cc="http://creativecommons.org/ns#"
   xmlns:rdf="http://www.w3.org/1999/02/22-rdf-syntax-ns#"
   xmlns:svg="http://www.w3.org/2000/svg"
   xmlns="http://www.w3.org/2000/svg"
   xmlns:sodipodi="http://sodipodi.sourceforge.net/DTD/sodipodi-0.dtd"
   xmlns:inkscape="http://www.inkscape.org/namespaces/inkscape"
   width="60"
   height="60"
   viewBox="0 0 15.875 15.875"
   version="1.1"
   id="svg6240"
   inkscape:version="0.92.3 (2405546, 2018-03-11)"
   sodipodi:docname="logo.svg">
  <defs
     id="defs6234" />
  <sodipodi:namedview
     id="base"
     pagecolor="#ffffff"
     bordercolor="#666666"
     borderopacity="1.0"
     inkscape:pageopacity="0.0"
     inkscape:pageshadow="2"
     inkscape:zoom="7.9195959"
     inkscape:cx="31.584855"
     inkscape:cy="33.649016"
     inkscape:document-units="mm"
     inkscape:current-layer="layer1"
     showgrid="false"
     units="px"
     inkscape:window-width="960"
     inkscape:window-height="1025"
     inkscape:window-x="960"
     inkscape:window-y="27"
     inkscape:window-maximized="0" />
  <metadata
     id="metadata6237">
    <rdf:RDF>
      <cc:Work
         rdf:about="">
        <dc:format>image/svg+xml</dc:format>
        <dc:type
           rdf:resource="http://purl.org/dc/dcmitype/StillImage" />
        <dc:title></dc:title>
      </cc:Work>
    </rdf:RDF>
  </metadata>
  <g
     inkscape:label="Layer 1"
     inkscape:groupmode="layer"
     id="layer1"
     transform="translate(0,-281.12498)">
    <path
       inkscape:connector-curvature="0"
       id="path4921"
       d="m 11.557025,285.75154 -0.31213,1.38441 h 1.69809 v -1.38441 z m -5.0420702,0.0202 -2.38177,2.82308 v -2.07222 h -1.20148 v 5.0059 h 1.20148 v -2.52285 l 2.5869199,3.36724 h 1.2118102 v 5.3e-4 h 0.81649 0.52297 v -1.84589 h -0.52297 -0.81649 v 1.45108 l -2.4846001,-3.29128 2.48409,-2.91558 z m 1.4169601,0 v 1.36426 h 1.68724 l -0.30903,-1.36426 z m 1.67277,4.75578 0.4278801,1.84589 h 0.79478 l 0.42892,-1.84589 z m 1.9988401,0 v 1.84589 h 0.51522 0.82424 v -1.84589 h -0.82424 z"
       style="font-style:normal;font-variant:normal;font-weight:bold;font-stretch:normal;font-size:medium;line-height:1.25;font-family:Padauk;-inkscape-font-specification:'Padauk Bold';letter-spacing:0px;word-spacing:0px;fill:#5c3738;fill-opacity:1;stroke:none;stroke-width:0.26282263" />
    <path
       inkscape:connector-curvature="0"
       style="fill:#fad6a6;fill-opacity:1;stroke-width:0.27952278"
       d="m 7.9235948,285.79443 -1.2319899,1.44604 -1.2319801,1.44603 0.0457,0.0621 c 0.0251,0.0341 0.57945,0.76958 1.2319699,1.63391 l 1.1863001,1.57129 0.004,-1.42653 h 5.0157002 v -3.39154 H 7.9275948 Z"
       id="path4923" />
  </g>
</svg>
