<?xml version="1.0" encoding="UTF-8" standalone="no"?>
<!-- Created with Inkscape (http://www.inkscape.org/) -->

<svg
   xmlns:dc="http://purl.org/dc/elements/1.1/"
   xmlns:cc="http://creativecommons.org/ns#"
   xmlns:rdf="http://www.w3.org/1999/02/22-rdf-syntax-ns#"
   xmlns:svg="http://www.w3.org/2000/svg"
   xmlns="http://www.w3.org/2000/svg"
   xmlns:sodipodi="http://sodipodi.sourceforge.net/DTD/sodipodi-0.dtd"
   xmlns:inkscape="http://www.inkscape.org/namespaces/inkscape"
   width="60"
   height="60"
   viewBox="0 0 15.875 15.875"
   version="1.1"
   id="svg6240"
   inkscape:version="0.92.3 (2405546, 2018-03-11)"
   sodipodi:docname="person.svg">
  <defs
     id="defs6234" />
  <sodipodi:namedview
     id="base"
     pagecolor="#ffffff"
     bordercolor="#666666"
     borderopacity="1.0"
     inkscape:pageopacity="0.0"
     inkscape:pageshadow="2"
     inkscape:zoom="7.9195959"
     inkscape:cx="28.397351"
     inkscape:cy="33.649016"
     inkscape:document-units="mm"
     inkscape:current-layer="layer1"
     showgrid="false"
     units="px"
     inkscape:window-width="960"
     inkscape:window-height="1025"
     inkscape:window-x="960"
     inkscape:window-y="27"
     inkscape:window-maximized="0"
     showguides="true"
     inkscape:guide-bbox="true">
    <sodipodi:guide
       position="15.367998,2.4722431"
       orientation="0,1"
       id="guide6605"
       inkscape:locked="false" />
  </sodipodi:namedview>
  <metadata
     id="metadata6237">
    <rdf:RDF>
      <cc:Work
         rdf:about="">
        <dc:format>image/svg+xml</dc:format>
        <dc:type
           rdf:resource="http://purl.org/dc/dcmitype/StillImage" />
        <dc:title></dc:title>
      </cc:Work>
    </rdf:RDF>
  </metadata>
  <g
     inkscape:label="Layer 1"
     inkscape:groupmode="layer"
     id="layer1"
     transform="translate(0,-281.12498)">
    <g
       id="g6603"
       transform="translate(-0.11399454,0.11399677)">
      <g
         style="opacity:0.553;fill:#ffffff;fill-opacity:1"
         transform="matrix(0.02100654,0,0,0.02100654,2.6738308,283.48731)"
         id="g5375">
        <g
           style="fill:#ffffff;fill-opacity:1"
           id="g5316">
          <g
             style="fill:#ffffff;fill-opacity:1"
             id="g5314">
            <g
               style="fill:#ffffff;fill-opacity:1"
               id="g5312">
              <path
                 style="fill:#ffffff;fill-opacity:1"
                 inkscape:connector-curvature="0"
                 d="m 398.957,355.402 c -0.002,-10e-4 -0.004,-0.003 -0.007,-0.004 -7.975,-5.173 -14.392,-7.628 -15.912,-8.174 l -46.28,-19.286 -32.629,-21.532 c -0.314,-0.208 -0.641,-0.381 -0.972,-0.54 v -13.951 c 24.638,-12.301 42.487,-36.218 46.339,-64.536 19.865,-1.608 35.541,-18.277 35.541,-38.549 0,-10.031 -3.838,-19.181 -10.12,-26.062 V 113.26 C 374.919,50.807 324.112,0 261.661,0 h -8.767 c -62.446,0 -113.25,50.807 -113.25,113.257 v 48.955 c -6.59,6.941 -10.647,16.311 -10.647,26.615 0,20.272 15.676,36.941 35.541,38.549 3.853,28.319 21.703,52.236 46.342,64.536 v 13.047 l -34.011,22.442 c -0.461,0.102 -0.92,0.238 -1.371,0.426 l -46.534,19.392 c -2.327,0.833 -16.002,6.088 -29.579,18.91 -13.44,12.692 -29.461,35.528 -29.461,72.25 v 65.485 c 0,4.49 3.638,8.131 8.129,8.131 h 96.024 c 4.49,0 8.129,-3.638 8.129,-8.129 0,-4.49 -3.638,-8.129 -8.129,-8.129 h -25.041 v -60.335 c 0,-4.49 -3.638,-8.129 -8.129,-8.129 -4.491,0 -8.129,3.638 -8.129,8.129 v 60.335 H 86.183 v -57.356 c 0,-58.562 46.342,-75.194 48.286,-75.864 0.182,-0.062 0.361,-0.128 0.538,-0.202 l 38.763,-16.154 41.9,149.577 h -16.152 c -4.49,0 -8.129,3.638 -8.129,8.129 0,4.491 3.638,8.129 8.129,8.129 h 26.84 c 0.009,0 0.017,0.002 0.027,0.002 0.011,0 0.022,-0.002 0.031,-0.002 h 61.233 0.022 0.09 c 0.011,0 0.022,0.002 0.031,0.002 0.009,0 0.017,-0.002 0.027,-0.002 h 146.127 c 4.49,0 8.129,-3.656 8.129,-8.145 V 438.38 c -10e-4,-47.845 -27.012,-72.524 -43.118,-82.978 z m -75.326,-16.65 -24.485,50.325 -30.372,-22.354 32.11,-33.331 c 1.783,-1.85 2.508,-4.326 2.201,-6.689 0.043,-0.339 0.073,-0.683 0.073,-1.033 v -0.426 z m -49.389,52.179 -6.387,17.01 h -21.893 v 0.001 l -7.187,-17.155 17.635,-12.979 z m -47.227,-63.898 c 0.075,-0.444 0.124,-0.898 0.124,-1.365 V 309.42 c 0,-0.004 0,-0.008 0,-0.012 v -11.365 c 6.885,1.808 14.105,2.778 21.55,2.778 h 16.665 c 7.444,0 14.663,-0.97 21.548,-2.777 v 26.428 l -30.263,31.414 z M 368.782,188.828 c -10e-4,11.019 -7.995,20.188 -18.484,22.061 v -44.125 c 10.489,1.872 18.484,11.043 18.484,22.064 z m -205.043,22.061 c -10.489,-1.873 -18.484,-11.041 -18.484,-22.061 0,-11.022 7.994,-20.192 18.484,-22.065 z m 8.161,-68.567 c -0.012,0 -0.024,0 -0.035,0 -0.28,0 -0.556,0.014 -0.829,0.042 -0.086,0.009 -0.168,0.027 -0.254,0.039 -0.185,0.025 -0.371,0.048 -0.552,0.085 -0.117,0.024 -0.229,0.06 -0.344,0.088 -0.145,0.037 -0.292,0.067 -0.434,0.112 -0.132,0.041 -0.259,0.094 -0.388,0.141 -0.119,0.043 -0.241,0.081 -0.357,0.13 -0.148,0.063 -0.289,0.137 -0.434,0.208 -0.091,0.046 -0.186,0.085 -0.276,0.133 -0.14,0.076 -0.273,0.164 -0.409,0.247 -0.087,0.054 -0.177,0.102 -0.261,0.159 -0.129,0.087 -0.249,0.184 -0.373,0.277 -0.083,0.064 -0.171,0.122 -0.253,0.189 -0.112,0.091 -0.214,0.192 -0.32,0.289 -0.086,0.078 -0.176,0.153 -0.258,0.234 -0.098,0.098 -0.188,0.204 -0.28,0.307 -0.081,0.09 -0.167,0.176 -0.244,0.269 -0.086,0.103 -0.161,0.214 -0.242,0.321 -0.076,0.102 -0.156,0.199 -0.228,0.305 -0.07,0.104 -0.131,0.215 -0.197,0.322 -0.07,0.116 -0.146,0.228 -0.211,0.347 -0.057,0.106 -0.105,0.218 -0.158,0.326 -0.062,0.128 -0.129,0.253 -0.184,0.384 -0.046,0.106 -0.08,0.218 -0.12,0.326 -0.052,0.14 -0.108,0.276 -0.154,0.419 -0.035,0.109 -0.059,0.224 -0.088,0.336 -0.039,0.146 -0.082,0.292 -0.114,0.441 -0.025,0.118 -0.037,0.241 -0.056,0.36 -0.024,0.147 -0.052,0.294 -0.068,0.444 -0.013,0.126 -0.014,0.255 -0.021,0.382 -0.007,0.116 -0.017,0.231 -0.02,0.349 -2.706,0.275 -5.327,0.836 -7.841,1.642 v -38.719 c 0,-53.483 43.511,-96.997 96.993,-96.997 h 8.767 c 53.487,0 97,43.514 97,97 v 38.898 c -2.674,-0.901 -5.472,-1.526 -8.369,-1.821 0,-0.034 -0.004,-0.067 -0.005,-0.101 -0.004,-0.179 -0.011,-0.358 -0.027,-0.534 -0.01,-0.107 -0.027,-0.212 -0.041,-0.319 -0.021,-0.155 -0.041,-0.31 -0.07,-0.464 -0.025,-0.129 -0.056,-0.255 -0.088,-0.382 -0.03,-0.126 -0.06,-0.251 -0.096,-0.375 -0.042,-0.144 -0.092,-0.285 -0.142,-0.426 -0.037,-0.103 -0.072,-0.206 -0.113,-0.307 -0.06,-0.148 -0.127,-0.294 -0.195,-0.438 -0.043,-0.091 -0.085,-0.182 -0.131,-0.271 -0.074,-0.141 -0.153,-0.277 -0.234,-0.414 -0.053,-0.09 -0.106,-0.181 -0.163,-0.269 -0.081,-0.125 -0.167,-0.245 -0.255,-0.365 -0.068,-0.094 -0.137,-0.189 -0.209,-0.28 -0.085,-0.105 -0.172,-0.206 -0.261,-0.308 -0.087,-0.099 -0.172,-0.196 -0.263,-0.29 -0.085,-0.088 -0.173,-0.17 -0.261,-0.254 -0.103,-0.098 -0.207,-0.194 -0.315,-0.286 -0.089,-0.075 -0.181,-0.146 -0.273,-0.218 -0.115,-0.089 -0.229,-0.178 -0.348,-0.26 -0.1,-0.069 -0.203,-0.133 -0.306,-0.198 -0.117,-0.074 -0.234,-0.147 -0.355,-0.216 -0.119,-0.067 -0.244,-0.128 -0.366,-0.189 -0.111,-0.054 -0.219,-0.111 -0.333,-0.16 -0.146,-0.065 -0.297,-0.12 -0.449,-0.177 -0.098,-0.036 -0.193,-0.075 -0.293,-0.107 -0.168,-0.055 -0.339,-0.1 -0.512,-0.144 -0.073,-0.018 -0.143,-0.044 -0.217,-0.061 -31.812,-7.236 -41.411,-47.307 -41.501,-47.695 -0.705,-3.115 -3.17,-5.529 -6.299,-6.168 -3.129,-0.643 -6.343,0.61 -8.216,3.2 -36.155,49.981 -114.76,50.462 -116.044,50.462 -0.001,0 -0.005,0 -0.007,0 z m 8.097,73.554 v -57.579 c 20.783,-1.277 76.003,-8.193 111.522,-45.373 6.127,14.414 18.815,35.462 42.521,43.641 v 59.311 c 0,37.875 -30.813,68.689 -68.686,68.689 h -16.665 c -37.878,-10e-4 -68.692,-30.815 -68.692,-68.689 z m 30.884,108.563 v 1.23 c 0,0.861 0.137,1.69 0.384,2.468 -0.893,2.835 -0.202,6.055 2.072,8.271 l 30.946,30.142 -30.609,22.528 -24.484,-50.325 z m 13.368,141.656 -15.942,-56.912 c 0.127,0.038 0.25,0.085 0.379,0.116 0.644,0.158 1.296,0.236 1.947,0.236 1.717,0 3.409,-0.544 4.818,-1.582 l 9.852,-7.25 6.856,16.367 z m 11.685,29.645 11.542,-71.54 h 19.087 l 11.541,71.54 z m 45.92,-78.832 5.994,-15.962 9.522,7.008 c 1.41,1.038 3.101,1.582 4.818,1.582 0.65,0 1.303,-0.078 1.947,-0.236 0.675,-0.167 1.314,-0.426 1.913,-0.75 l -16.207,57.857 z m 143.963,78.832 v 0 h -46.599 v -60.335 c 0,-4.49 -3.638,-8.129 -8.129,-8.129 -4.49,0 -8.129,3.638 -8.129,8.129 v 60.335 h -64.454 l 41.671,-148.766 36.815,15.342 c 0.158,0.066 0.348,0.138 0.51,0.193 0.054,0.02 5.489,1.915 12.6,6.528 0.001,0.001 0.002,0.001 0.003,0.002 16.292,10.576 35.712,31.191 35.712,69.344 z"
                 id="path5308" />
              <path
                 style="fill:#ffffff;fill-opacity:1"
                 inkscape:connector-curvature="0"
                 d="m 266.527,223.303 c 4.49,0 8.129,-3.638 8.129,-8.129 0,-4.49 -3.638,-8.129 -8.129,-8.129 h -6 v -18.823 c 0,-4.489 -3.638,-8.129 -8.129,-8.129 -4.49,0 -8.129,3.64 -8.129,8.129 v 26.952 c 0,4.49 3.638,8.129 8.129,8.129 z"
                 id="path5310" />
            </g>
          </g>
        </g>
        <g
           style="fill:#ffffff;fill-opacity:1"
           id="g5318" />
        <g
           style="fill:#ffffff;fill-opacity:1"
           id="g5320" />
        <g
           style="fill:#ffffff;fill-opacity:1"
           id="g5322" />
        <g
           style="fill:#ffffff;fill-opacity:1"
           id="g5324" />
        <g
           style="fill:#ffffff;fill-opacity:1"
           id="g5326" />
        <g
           style="fill:#ffffff;fill-opacity:1"
           id="g5328" />
        <g
           style="fill:#ffffff;fill-opacity:1"
           id="g5330" />
        <g
           style="fill:#ffffff;fill-opacity:1"
           id="g5332" />
        <g
           style="fill:#ffffff;fill-opacity:1"
           id="g5334" />
        <g
           style="fill:#ffffff;fill-opacity:1"
           id="g5336" />
        <g
           style="fill:#ffffff;fill-opacity:1"
           id="g5338" />
        <g
           style="fill:#ffffff;fill-opacity:1"
           id="g5340" />
        <g
           style="fill:#ffffff;fill-opacity:1"
           id="g5342" />
        <g
           style="fill:#ffffff;fill-opacity:1"
           id="g5344" />
        <g
           style="fill:#ffffff;fill-opacity:1"
           id="g5346" />
      </g>
      <g
         id="g5552"
         transform="matrix(0.02100654,0,0,0.02100654,2.6738308,283.65435)"
         style="fill:#5c3738;fill-opacity:1">
        <g
           id="g5520"
           style="fill:#5c3738;fill-opacity:1">
          <g
             id="g5518"
             style="fill:#5c3738;fill-opacity:1">
            <g
               id="g5516"
               style="fill:#5c3738;fill-opacity:1">
              <path
                 id="path5512"
                 d="m 398.957,355.402 c -0.002,-10e-4 -0.004,-0.003 -0.007,-0.004 -7.975,-5.173 -14.392,-7.628 -15.912,-8.174 l -46.28,-19.286 -32.629,-21.532 c -0.314,-0.208 -0.641,-0.381 -0.972,-0.54 v -13.951 c 24.638,-12.301 42.487,-36.218 46.339,-64.536 19.865,-1.608 35.541,-18.277 35.541,-38.549 0,-10.031 -3.838,-19.181 -10.12,-26.062 V 113.26 C 374.919,50.807 324.112,0 261.661,0 h -8.767 c -62.446,0 -113.25,50.807 -113.25,113.257 v 48.955 c -6.59,6.941 -10.647,16.311 -10.647,26.615 0,20.272 15.676,36.941 35.541,38.549 3.853,28.319 21.703,52.236 46.342,64.536 v 13.047 l -34.011,22.442 c -0.461,0.102 -0.92,0.238 -1.371,0.426 l -46.534,19.392 c -2.327,0.833 -16.002,6.088 -29.579,18.91 -13.44,12.692 -29.461,35.528 -29.461,72.25 v 65.485 c 0,4.49 3.638,8.131 8.129,8.131 h 96.024 c 4.49,0 8.129,-3.638 8.129,-8.129 0,-4.49 -3.638,-8.129 -8.129,-8.129 h -25.041 v -60.335 c 0,-4.49 -3.638,-8.129 -8.129,-8.129 -4.491,0 -8.129,3.638 -8.129,8.129 v 60.335 H 86.183 v -57.356 c 0,-58.562 46.342,-75.194 48.286,-75.864 0.182,-0.062 0.361,-0.128 0.538,-0.202 l 38.763,-16.154 41.9,149.577 h -16.152 c -4.49,0 -8.129,3.638 -8.129,8.129 0,4.491 3.638,8.129 8.129,8.129 h 26.84 c 0.009,0 0.017,0.002 0.027,0.002 0.011,0 0.022,-0.002 0.031,-0.002 h 61.233 0.022 0.09 c 0.011,0 0.022,0.002 0.031,0.002 0.009,0 0.017,-0.002 0.027,-0.002 h 146.127 c 4.49,0 8.129,-3.656 8.129,-8.145 V 438.38 c -10e-4,-47.845 -27.012,-72.524 -43.118,-82.978 z m -75.326,-16.65 -24.485,50.325 -30.372,-22.354 32.11,-33.331 c 1.783,-1.85 2.508,-4.326 2.201,-6.689 0.043,-0.339 0.073,-0.683 0.073,-1.033 v -0.426 z m -49.389,52.179 -6.387,17.01 h -21.893 v 0.001 l -7.187,-17.155 17.635,-12.979 z m -47.227,-63.898 c 0.075,-0.444 0.124,-0.898 0.124,-1.365 V 309.42 c 0,-0.004 0,-0.008 0,-0.012 v -11.365 c 6.885,1.808 14.105,2.778 21.55,2.778 h 16.665 c 7.444,0 14.663,-0.97 21.548,-2.777 v 26.428 l -30.263,31.414 z M 368.782,188.828 c -10e-4,11.019 -7.995,20.188 -18.484,22.061 v -44.125 c 10.489,1.872 18.484,11.043 18.484,22.064 z m -205.043,22.061 c -10.489,-1.873 -18.484,-11.041 -18.484,-22.061 0,-11.022 7.994,-20.192 18.484,-22.065 z m 8.161,-68.567 c -0.012,0 -0.024,0 -0.035,0 -0.28,0 -0.556,0.014 -0.829,0.042 -0.086,0.009 -0.168,0.027 -0.254,0.039 -0.185,0.025 -0.371,0.048 -0.552,0.085 -0.117,0.024 -0.229,0.06 -0.344,0.088 -0.145,0.037 -0.292,0.067 -0.434,0.112 -0.132,0.041 -0.259,0.094 -0.388,0.141 -0.119,0.043 -0.241,0.081 -0.357,0.13 -0.148,0.063 -0.289,0.137 -0.434,0.208 -0.091,0.046 -0.186,0.085 -0.276,0.133 -0.14,0.076 -0.273,0.164 -0.409,0.247 -0.087,0.054 -0.177,0.102 -0.261,0.159 -0.129,0.087 -0.249,0.184 -0.373,0.277 -0.083,0.064 -0.171,0.122 -0.253,0.189 -0.112,0.091 -0.214,0.192 -0.32,0.289 -0.086,0.078 -0.176,0.153 -0.258,0.234 -0.098,0.098 -0.188,0.204 -0.28,0.307 -0.081,0.09 -0.167,0.176 -0.244,0.269 -0.086,0.103 -0.161,0.214 -0.242,0.321 -0.076,0.102 -0.156,0.199 -0.228,0.305 -0.07,0.104 -0.131,0.215 -0.197,0.322 -0.07,0.116 -0.146,0.228 -0.211,0.347 -0.057,0.106 -0.105,0.218 -0.158,0.326 -0.062,0.128 -0.129,0.253 -0.184,0.384 -0.046,0.106 -0.08,0.218 -0.12,0.326 -0.052,0.14 -0.108,0.276 -0.154,0.419 -0.035,0.109 -0.059,0.224 -0.088,0.336 -0.039,0.146 -0.082,0.292 -0.114,0.441 -0.025,0.118 -0.037,0.241 -0.056,0.36 -0.024,0.147 -0.052,0.294 -0.068,0.444 -0.013,0.126 -0.014,0.255 -0.021,0.382 -0.007,0.116 -0.017,0.231 -0.02,0.349 -2.706,0.275 -5.327,0.836 -7.841,1.642 v -38.719 c 0,-53.483 43.511,-96.997 96.993,-96.997 h 8.767 c 53.487,0 97,43.514 97,97 v 38.898 c -2.674,-0.901 -5.472,-1.526 -8.369,-1.821 0,-0.034 -0.004,-0.067 -0.005,-0.101 -0.004,-0.179 -0.011,-0.358 -0.027,-0.534 -0.01,-0.107 -0.027,-0.212 -0.041,-0.319 -0.021,-0.155 -0.041,-0.31 -0.07,-0.464 -0.025,-0.129 -0.056,-0.255 -0.088,-0.382 -0.03,-0.126 -0.06,-0.251 -0.096,-0.375 -0.042,-0.144 -0.092,-0.285 -0.142,-0.426 -0.037,-0.103 -0.072,-0.206 -0.113,-0.307 -0.06,-0.148 -0.127,-0.294 -0.195,-0.438 -0.043,-0.091 -0.085,-0.182 -0.131,-0.271 -0.074,-0.141 -0.153,-0.277 -0.234,-0.414 -0.053,-0.09 -0.106,-0.181 -0.163,-0.269 -0.081,-0.125 -0.167,-0.245 -0.255,-0.365 -0.068,-0.094 -0.137,-0.189 -0.209,-0.28 -0.085,-0.105 -0.172,-0.206 -0.261,-0.308 -0.087,-0.099 -0.172,-0.196 -0.263,-0.29 -0.085,-0.088 -0.173,-0.17 -0.261,-0.254 -0.103,-0.098 -0.207,-0.194 -0.315,-0.286 -0.089,-0.075 -0.181,-0.146 -0.273,-0.218 -0.115,-0.089 -0.229,-0.178 -0.348,-0.26 -0.1,-0.069 -0.203,-0.133 -0.306,-0.198 -0.117,-0.074 -0.234,-0.147 -0.355,-0.216 -0.119,-0.067 -0.244,-0.128 -0.366,-0.189 -0.111,-0.054 -0.219,-0.111 -0.333,-0.16 -0.146,-0.065 -0.297,-0.12 -0.449,-0.177 -0.098,-0.036 -0.193,-0.075 -0.293,-0.107 -0.168,-0.055 -0.339,-0.1 -0.512,-0.144 -0.073,-0.018 -0.143,-0.044 -0.217,-0.061 -31.812,-7.236 -41.411,-47.307 -41.501,-47.695 -0.705,-3.115 -3.17,-5.529 -6.299,-6.168 -3.129,-0.643 -6.343,0.61 -8.216,3.2 -36.155,49.981 -114.76,50.462 -116.044,50.462 -0.001,0 -0.005,0 -0.007,0 z m 8.097,73.554 v -57.579 c 20.783,-1.277 76.003,-8.193 111.522,-45.373 6.127,14.414 18.815,35.462 42.521,43.641 v 59.311 c 0,37.875 -30.813,68.689 -68.686,68.689 h -16.665 c -37.878,-10e-4 -68.692,-30.815 -68.692,-68.689 z m 30.884,108.563 v 1.23 c 0,0.861 0.137,1.69 0.384,2.468 -0.893,2.835 -0.202,6.055 2.072,8.271 l 30.946,30.142 -30.609,22.528 -24.484,-50.325 z m 13.368,141.656 -15.942,-56.912 c 0.127,0.038 0.25,0.085 0.379,0.116 0.644,0.158 1.296,0.236 1.947,0.236 1.717,0 3.409,-0.544 4.818,-1.582 l 9.852,-7.25 6.856,16.367 z m 11.685,29.645 11.542,-71.54 h 19.087 l 11.541,71.54 z m 45.92,-78.832 5.994,-15.962 9.522,7.008 c 1.41,1.038 3.101,1.582 4.818,1.582 0.65,0 1.303,-0.078 1.947,-0.236 0.675,-0.167 1.314,-0.426 1.913,-0.75 l -16.207,57.857 z m 143.963,78.832 v 0 h -46.599 v -60.335 c 0,-4.49 -3.638,-8.129 -8.129,-8.129 -4.49,0 -8.129,3.638 -8.129,8.129 v 60.335 h -64.454 l 41.671,-148.766 36.815,15.342 c 0.158,0.066 0.348,0.138 0.51,0.193 0.054,0.02 5.489,1.915 12.6,6.528 0.001,0.001 0.002,0.001 0.003,0.002 16.292,10.576 35.712,31.191 35.712,69.344 z"
                 inkscape:connector-curvature="0"
                 style="fill:#5c3738;fill-opacity:1" />
              <path
                 id="path5514"
                 d="m 266.527,223.303 c 4.49,0 8.129,-3.638 8.129,-8.129 0,-4.49 -3.638,-8.129 -8.129,-8.129 h -6 v -18.823 c 0,-4.489 -3.638,-8.129 -8.129,-8.129 -4.49,0 -8.129,3.64 -8.129,8.129 v 26.952 c 0,4.49 3.638,8.129 8.129,8.129 z"
                 inkscape:connector-curvature="0"
                 style="fill:#5c3738;fill-opacity:1" />
            </g>
          </g>
        </g>
        <g
           id="g5522"
           style="fill:#5c3738;fill-opacity:1" />
        <g
           id="g5524"
           style="fill:#5c3738;fill-opacity:1" />
        <g
           id="g5526"
           style="fill:#5c3738;fill-opacity:1" />
        <g
           id="g5528"
           style="fill:#5c3738;fill-opacity:1" />
        <g
           id="g5530"
           style="fill:#5c3738;fill-opacity:1" />
        <g
           id="g5532"
           style="fill:#5c3738;fill-opacity:1" />
        <g
           id="g5534"
           style="fill:#5c3738;fill-opacity:1" />
        <g
           id="g5536"
           style="fill:#5c3738;fill-opacity:1" />
        <g
           id="g5538"
           style="fill:#5c3738;fill-opacity:1" />
        <g
           id="g5540"
           style="fill:#5c3738;fill-opacity:1" />
        <g
           id="g5542"
           style="fill:#5c3738;fill-opacity:1" />
        <g
           id="g5544"
           style="fill:#5c3738;fill-opacity:1" />
        <g
           id="g5546"
           style="fill:#5c3738;fill-opacity:1" />
        <g
           id="g5548"
           style="fill:#5c3738;fill-opacity:1" />
        <g
           id="g5550"
           style="fill:#5c3738;fill-opacity:1" />
      </g>
    </g>
  </g>
</svg>
