<?xml version="1.0" encoding="UTF-8" standalone="no"?>
<!-- Created with Inkscape (http://www.inkscape.org/) -->

<svg
   xmlns:dc="http://purl.org/dc/elements/1.1/"
   xmlns:cc="http://creativecommons.org/ns#"
   xmlns:rdf="http://www.w3.org/1999/02/22-rdf-syntax-ns#"
   xmlns:svg="http://www.w3.org/2000/svg"
   xmlns="http://www.w3.org/2000/svg"
   xmlns:sodipodi="http://sodipodi.sourceforge.net/DTD/sodipodi-0.dtd"
   xmlns:inkscape="http://www.inkscape.org/namespaces/inkscape"
   width="60"
   height="60"
   viewBox="0 0 15.875 15.875"
   version="1.1"
   id="svg6240"
   inkscape:version="0.92.3 (2405546, 2018-03-11)"
   sodipodi:docname="read.svg">
  <defs
     id="defs6234" />
  <sodipodi:namedview
     id="base"
     pagecolor="#ffffff"
     bordercolor="#666666"
     borderopacity="1.0"
     inkscape:pageopacity="0.0"
     inkscape:pageshadow="2"
     inkscape:zoom="7.9195959"
     inkscape:cx="28.397351"
     inkscape:cy="33.649016"
     inkscape:document-units="mm"
     inkscape:current-layer="layer1"
     showgrid="false"
     units="px"
     inkscape:window-width="960"
     inkscape:window-height="1025"
     inkscape:window-x="960"
     inkscape:window-y="27"
     inkscape:window-maximized="0"
     showguides="true"
     inkscape:guide-bbox="true"
     inkscape:snap-global="false">
    <sodipodi:guide
       position="15.367998,2.4722431"
       orientation="0,1"
       id="guide6605"
       inkscape:locked="false" />
  </sodipodi:namedview>
  <metadata
     id="metadata6237">
    <rdf:RDF>
      <cc:Work
         rdf:about="">
        <dc:format>image/svg+xml</dc:format>
        <dc:type
           rdf:resource="http://purl.org/dc/dcmitype/StillImage" />
        <dc:title></dc:title>
      </cc:Work>
    </rdf:RDF>
  </metadata>
  <g
     inkscape:label="Layer 1"
     inkscape:groupmode="layer"
     id="layer1"
     transform="translate(0,-281.12498)">
    <g
       id="g5225"
       transform="matrix(0.01829676,0,0,0.01829676,3.2535203,285.13799)"
       style="opacity:0.50199998;fill:#ffffff;fill-opacity:1">
      <g
         id="g5168"
         style="fill:#ffffff;fill-opacity:1">
        <g
           id="g5166"
           style="fill:#ffffff;fill-opacity:1">
          <path
             id="path5164"
             d="m 481.999,273.586 v -47.58 c 0,-8.284 -6.716,-15 -15,-15 -30.988,0 -59.878,2.615 -87.173,7.955 -15.911,-15.365 -35.308,-26.513 -56.313,-32.606 22.904,-19.277 37.486,-48.14 37.486,-80.349 0,-58.449 -47.103,-106 -105,-106 -57.897,0 -105,47.551 -105,106 0,32.209 14.582,61.072 37.487,80.348 -21.005,6.094 -40.402,17.242 -56.313,32.606 -27.295,-5.339 -56.185,-7.955 -87.173,-7.955 -8.284,0 -15,6.716 -15,15 v 47.58 C 12.541,279.777 0,296.45 0,316.005 v 30 c 0,19.555 12.541,36.228 30,42.42 v 47.58 c 0,8.284 6.716,15 15,15 78.429,0 142.832,18.583 202.68,58.481 5.015,3.342 11.621,3.35 16.641,0 59.848,-39.898 124.25,-58.481 202.68,-58.481 8.284,0 15,-6.716 15,-15 v -47.58 c 17.459,-6.192 30,-22.865 30,-42.42 v -30 c -0.002,-19.554 -12.543,-36.227 -30.002,-42.419 z m -301,-167.58 c 0,-41.907 33.645,-76 75,-76 41.355,0 75,34.093 75,76 0,41.355 -33.645,75 -75,75 -41.355,0 -75,-33.645 -75,-75 z m -136,255 c -8.271,0 -15,-6.729 -15,-15 v -30 c 0,-8.271 6.729,-15 15,-15 8.271,0 15,6.729 15,15 v 30 c 0,8.271 -6.729,15 -15,15 z m 196,109.085 c -54.453,-31.141 -112.886,-46.88 -181,-48.869 v -32.796 c 17.459,-6.192 30,-22.865 30,-42.42 v -30 c 0,-19.555 -12.541,-36.228 -30,-42.42 v -32.368 c 70.481,2.023 127.134,18.62 181,52.916 z m 15,-201.946 c -27.686,-17.469 -56.504,-30.77 -87.268,-40.117 16.904,-10.986 36.803,-17.022 57.268,-17.022 h 60 c 20.465,0 40.364,6.036 57.268,17.022 -30.764,9.347 -59.583,22.648 -87.268,40.117 z m 196,153.077 c -68.113,1.989 -126.548,17.732 -181,48.871 V 294.146 c 53.867,-34.299 110.516,-50.906 181,-52.928 v 32.368 c -17.459,6.192 -30,22.865 -30,42.42 v 30 c 0,19.555 12.541,36.228 30,42.42 z m 30,-75.216 c 0,8.271 -6.729,15 -15,15 -8.271,0 -15,-6.729 -15,-15 v -30 c 0,-8.271 6.729,-15 15,-15 8.271,0 15,6.729 15,15 z"
             inkscape:connector-curvature="0"
             style="fill:#ffffff;fill-opacity:1" />
        </g>
      </g>
      <g
         id="g5170"
         style="fill:#ffffff;fill-opacity:1" />
      <g
         id="g5172"
         style="fill:#ffffff;fill-opacity:1" />
      <g
         id="g5174"
         style="fill:#ffffff;fill-opacity:1" />
      <g
         id="g5176"
         style="fill:#ffffff;fill-opacity:1" />
      <g
         id="g5178"
         style="fill:#ffffff;fill-opacity:1" />
      <g
         id="g5180"
         style="fill:#ffffff;fill-opacity:1" />
      <g
         id="g5182"
         style="fill:#ffffff;fill-opacity:1" />
      <g
         id="g5184"
         style="fill:#ffffff;fill-opacity:1" />
      <g
         id="g5186"
         style="fill:#ffffff;fill-opacity:1" />
      <g
         id="g5188"
         style="fill:#ffffff;fill-opacity:1" />
      <g
         id="g5190"
         style="fill:#ffffff;fill-opacity:1" />
      <g
         id="g5192"
         style="fill:#ffffff;fill-opacity:1" />
      <g
         id="g5194"
         style="fill:#ffffff;fill-opacity:1" />
      <g
         id="g5196"
         style="fill:#ffffff;fill-opacity:1" />
      <g
         id="g5198"
         style="fill:#ffffff;fill-opacity:1" />
    </g>
    <g
       style="fill:#5c3738;fill-opacity:1"
       transform="matrix(0.01829676,0,0,0.01829676,3.2535203,285.2619)"
       id="g6208">
      <g
         style="fill:#5c3738;fill-opacity:1"
         id="g6176">
        <g
           style="fill:#5c3738;fill-opacity:1"
           id="g6174">
          <path
             style="fill:#5c3738;fill-opacity:1"
             inkscape:connector-curvature="0"
             d="m 481.999,273.586 v -47.58 c 0,-8.284 -6.716,-15 -15,-15 -30.988,0 -59.878,2.615 -87.173,7.955 -15.911,-15.365 -35.308,-26.513 -56.313,-32.606 22.904,-19.277 37.486,-48.14 37.486,-80.349 0,-58.449 -47.103,-106 -105,-106 -57.897,0 -105,47.551 -105,106 0,32.209 14.582,61.072 37.487,80.348 -21.005,6.094 -40.402,17.242 -56.313,32.606 -27.295,-5.339 -56.185,-7.955 -87.173,-7.955 -8.284,0 -15,6.716 -15,15 v 47.58 C 12.541,279.777 0,296.45 0,316.005 v 30 c 0,19.555 12.541,36.228 30,42.42 v 47.58 c 0,8.284 6.716,15 15,15 78.429,0 142.832,18.583 202.68,58.481 5.015,3.342 11.621,3.35 16.641,0 59.848,-39.898 124.25,-58.481 202.68,-58.481 8.284,0 15,-6.716 15,-15 v -47.58 c 17.459,-6.192 30,-22.865 30,-42.42 v -30 c -0.002,-19.554 -12.543,-36.227 -30.002,-42.419 z m -301,-167.58 c 0,-41.907 33.645,-76 75,-76 41.355,0 75,34.093 75,76 0,41.355 -33.645,75 -75,75 -41.355,0 -75,-33.645 -75,-75 z m -136,255 c -8.271,0 -15,-6.729 -15,-15 v -30 c 0,-8.271 6.729,-15 15,-15 8.271,0 15,6.729 15,15 v 30 c 0,8.271 -6.729,15 -15,15 z m 196,109.085 c -54.453,-31.141 -112.886,-46.88 -181,-48.869 v -32.796 c 17.459,-6.192 30,-22.865 30,-42.42 v -30 c 0,-19.555 -12.541,-36.228 -30,-42.42 v -32.368 c 70.481,2.023 127.134,18.62 181,52.916 z m 15,-201.946 c -27.686,-17.469 -56.504,-30.77 -87.268,-40.117 16.904,-10.986 36.803,-17.022 57.268,-17.022 h 60 c 20.465,0 40.364,6.036 57.268,17.022 -30.764,9.347 -59.583,22.648 -87.268,40.117 z m 196,153.077 c -68.113,1.989 -126.548,17.732 -181,48.871 V 294.146 c 53.867,-34.299 110.516,-50.906 181,-52.928 v 32.368 c -17.459,6.192 -30,22.865 -30,42.42 v 30 c 0,19.555 12.541,36.228 30,42.42 z m 30,-75.216 c 0,8.271 -6.729,15 -15,15 -8.271,0 -15,-6.729 -15,-15 v -30 c 0,-8.271 6.729,-15 15,-15 8.271,0 15,6.729 15,15 z"
             id="path6172" />
        </g>
      </g>
      <g
         style="fill:#5c3738;fill-opacity:1"
         id="g6178" />
      <g
         style="fill:#5c3738;fill-opacity:1"
         id="g6180" />
      <g
         style="fill:#5c3738;fill-opacity:1"
         id="g6182" />
      <g
         style="fill:#5c3738;fill-opacity:1"
         id="g6184" />
      <g
         style="fill:#5c3738;fill-opacity:1"
         id="g6186" />
      <g
         style="fill:#5c3738;fill-opacity:1"
         id="g6188" />
      <g
         style="fill:#5c3738;fill-opacity:1"
         id="g6190" />
      <g
         style="fill:#5c3738;fill-opacity:1"
         id="g6192" />
      <g
         style="fill:#5c3738;fill-opacity:1"
         id="g6194" />
      <g
         style="fill:#5c3738;fill-opacity:1"
         id="g6196" />
      <g
         style="fill:#5c3738;fill-opacity:1"
         id="g6198" />
      <g
         style="fill:#5c3738;fill-opacity:1"
         id="g6200" />
      <g
         style="fill:#5c3738;fill-opacity:1"
         id="g6202" />
      <g
         style="fill:#5c3738;fill-opacity:1"
         id="g6204" />
      <g
         style="fill:#5c3738;fill-opacity:1"
         id="g6206" />
    </g>
  </g>
</svg>
