<?xml version="1.0" encoding="UTF-8" standalone="no"?>
<!-- Created with Inkscape (http://www.inkscape.org/) -->

<svg
   xmlns:dc="http://purl.org/dc/elements/1.1/"
   xmlns:cc="http://creativecommons.org/ns#"
   xmlns:rdf="http://www.w3.org/1999/02/22-rdf-syntax-ns#"
   xmlns:svg="http://www.w3.org/2000/svg"
   xmlns="http://www.w3.org/2000/svg"
   xmlns:sodipodi="http://sodipodi.sourceforge.net/DTD/sodipodi-0.dtd"
   xmlns:inkscape="http://www.inkscape.org/namespaces/inkscape"
   width="60"
   height="60"
   viewBox="0 0 15.875 15.875"
   version="1.1"
   id="svg6240"
   inkscape:version="0.92.3 (2405546, 2018-03-11)"
   sodipodi:docname="store.svg">
  <defs
     id="defs6234" />
  <sodipodi:namedview
     id="base"
     pagecolor="#ffffff"
     bordercolor="#666666"
     borderopacity="1.0"
     inkscape:pageopacity="0.0"
     inkscape:pageshadow="2"
     inkscape:zoom="7.9195959"
     inkscape:cx="28.397351"
     inkscape:cy="33.649016"
     inkscape:document-units="mm"
     inkscape:current-layer="layer1"
     showgrid="false"
     units="px"
     inkscape:window-width="960"
     inkscape:window-height="1025"
     inkscape:window-x="960"
     inkscape:window-y="27"
     inkscape:window-maximized="0"
     showguides="true"
     inkscape:guide-bbox="true"
     inkscape:snap-global="false">
    <sodipodi:guide
       position="15.367998,2.4722431"
       orientation="0,1"
       id="guide6605"
       inkscape:locked="false" />
  </sodipodi:namedview>
  <metadata
     id="metadata6237">
    <rdf:RDF>
      <cc:Work
         rdf:about="">
        <dc:format>image/svg+xml</dc:format>
        <dc:type
           rdf:resource="http://purl.org/dc/dcmitype/StillImage" />
        <dc:title></dc:title>
      </cc:Work>
    </rdf:RDF>
  </metadata>
  <g
     inkscape:label="Layer 1"
     inkscape:groupmode="layer"
     id="layer1"
     transform="translate(0,-281.12498)">
    <g
       id="g5441"
       transform="matrix(0.01992304,0,0,0.01992304,3.0623321,285.21674)"
       style="opacity:0.553;fill:#ffffff;fill-opacity:1">
      <g
         id="g5383"
         style="fill:#ffffff;fill-opacity:1">
        <g
           id="g5381"
           style="fill:#ffffff;fill-opacity:1">
          <path
             id="path5377"
             d="m 347.7,263.75 h -66.5 c -18.2,0 -33,14.8 -33,33 v 51 c 0,18.2 14.8,33 33,33 h 66.5 c 18.2,0 33,-14.8 33,-33 v -51 c 0,-18.2 -14.8,-33 -33,-33 z m 9,84 c 0,5 -4.1,9 -9,9 h -66.5 c -5,0 -9,-4.1 -9,-9 v -51 c 0,-5 4.1,-9 9,-9 h 66.5 c 5,0 9,4.1 9,9 z"
             inkscape:connector-curvature="0"
             style="fill:#ffffff;fill-opacity:1" />
          <path
             id="path5379"
             d="m 489.4,171.05 c 0,-2.1 -0.5,-4.1 -1.6,-5.9 L 415,37.15 c -2.1,-3.7 -6.1,-6.1 -10.4,-6.1 H 84.7 c -4.3,0 -8.3,2.3 -10.4,6.1 l -72.7,128 c -1,1.8 -1.6,3.8 -1.6,5.9 0,28.7 17.3,53.3 42,64.2 v 211.1 c 0,6.6 5.4,12 12,12 h 66.3 c 0.1,0 0.2,0 0.3,0 h 93 c 0.1,0 0.2,0 0.3,0 h 221.4 c 6.6,0 12,-5.4 12,-12 v -209.6 c 0,-0.5 0,-0.9 -0.1,-1.3 24.8,-10.9 42.2,-35.6 42.2,-64.4 z M 91.7,55.15 h 305.9 l 56.9,100.1 H 34.9 Z m 256.6,124 c -3.8,21.6 -22.7,38 -45.4,38 -22.7,0 -41.6,-16.4 -45.4,-38 z m -116.3,0 c -3.8,21.6 -22.7,38 -45.4,38 -22.7,0 -41.6,-16.4 -45.5,-38 z m -207.2,0 h 90.9 c -3.8,21.6 -22.8,38 -45.5,38 -22.7,0.1 -41.6,-16.4 -45.4,-38 z m 176.8,255.2 h -69 v -129.5 c 0,-9.4 7.6,-17.1 17.1,-17.1 h 34.9 c 9.4,0 17.1,7.6 17.1,17.1 v 129.5 z m 221.7,0 H 225.6 v -129.5 c 0,-22.6 -18.4,-41.1 -41.1,-41.1 h -34.9 c -22.6,0 -41.1,18.4 -41.1,41.1 v 129.6 H 66 v -193.3 c 1.4,0.1 2.8,0.1 4.2,0.1 24.2,0 45.6,-12.3 58.2,-31 12.6,18.7 34,31 58.2,31 24.2,0 45.5,-12.3 58.2,-31 12.6,18.7 34,31 58.1,31 24.2,0 45.5,-12.3 58.1,-31 12.6,18.7 34,31 58.2,31 1.4,0 2.7,-0.1 4.1,-0.1 z m -4.1,-217.1 c -22.7,0 -41.6,-16.4 -45.4,-38 h 90.9 c -3.9,21.5 -22.8,38 -45.5,38 z"
             inkscape:connector-curvature="0"
             style="fill:#ffffff;fill-opacity:1" />
        </g>
      </g>
      <g
         id="g5385"
         style="fill:#ffffff;fill-opacity:1" />
      <g
         id="g5387"
         style="fill:#ffffff;fill-opacity:1" />
      <g
         id="g5389"
         style="fill:#ffffff;fill-opacity:1" />
      <g
         id="g5391"
         style="fill:#ffffff;fill-opacity:1" />
      <g
         id="g5393"
         style="fill:#ffffff;fill-opacity:1" />
      <g
         id="g5395"
         style="fill:#ffffff;fill-opacity:1" />
      <g
         id="g5397"
         style="fill:#ffffff;fill-opacity:1" />
      <g
         id="g5399"
         style="fill:#ffffff;fill-opacity:1" />
      <g
         id="g5401"
         style="fill:#ffffff;fill-opacity:1" />
      <g
         id="g5403"
         style="fill:#ffffff;fill-opacity:1" />
      <g
         id="g5405"
         style="fill:#ffffff;fill-opacity:1" />
      <g
         id="g5407"
         style="fill:#ffffff;fill-opacity:1" />
      <g
         id="g5409"
         style="fill:#ffffff;fill-opacity:1" />
      <g
         id="g5411"
         style="fill:#ffffff;fill-opacity:1" />
      <g
         id="g5413"
         style="fill:#ffffff;fill-opacity:1" />
    </g>
    <g
       style="fill:#5c3738;fill-opacity:1"
       transform="matrix(0.01992304,0,0,0.01992304,3.0623321,285.38378)"
       id="g5592">
      <g
         style="fill:#5c3738;fill-opacity:1"
         id="g5560">
        <g
           style="fill:#5c3738;fill-opacity:1"
           id="g5558">
          <path
             style="fill:#5c3738;fill-opacity:1"
             inkscape:connector-curvature="0"
             d="m 347.7,263.75 h -66.5 c -18.2,0 -33,14.8 -33,33 v 51 c 0,18.2 14.8,33 33,33 h 66.5 c 18.2,0 33,-14.8 33,-33 v -51 c 0,-18.2 -14.8,-33 -33,-33 z m 9,84 c 0,5 -4.1,9 -9,9 h -66.5 c -5,0 -9,-4.1 -9,-9 v -51 c 0,-5 4.1,-9 9,-9 h 66.5 c 5,0 9,4.1 9,9 z"
             id="path5554" />
          <path
             style="fill:#5c3738;fill-opacity:1"
             inkscape:connector-curvature="0"
             d="m 489.4,171.05 c 0,-2.1 -0.5,-4.1 -1.6,-5.9 L 415,37.15 c -2.1,-3.7 -6.1,-6.1 -10.4,-6.1 H 84.7 c -4.3,0 -8.3,2.3 -10.4,6.1 l -72.7,128 c -1,1.8 -1.6,3.8 -1.6,5.9 0,28.7 17.3,53.3 42,64.2 v 211.1 c 0,6.6 5.4,12 12,12 h 66.3 c 0.1,0 0.2,0 0.3,0 h 93 c 0.1,0 0.2,0 0.3,0 h 221.4 c 6.6,0 12,-5.4 12,-12 v -209.6 c 0,-0.5 0,-0.9 -0.1,-1.3 24.8,-10.9 42.2,-35.6 42.2,-64.4 z M 91.7,55.15 h 305.9 l 56.9,100.1 H 34.9 Z m 256.6,124 c -3.8,21.6 -22.7,38 -45.4,38 -22.7,0 -41.6,-16.4 -45.4,-38 z m -116.3,0 c -3.8,21.6 -22.7,38 -45.4,38 -22.7,0 -41.6,-16.4 -45.5,-38 z m -207.2,0 h 90.9 c -3.8,21.6 -22.8,38 -45.5,38 -22.7,0.1 -41.6,-16.4 -45.4,-38 z m 176.8,255.2 h -69 v -129.5 c 0,-9.4 7.6,-17.1 17.1,-17.1 h 34.9 c 9.4,0 17.1,7.6 17.1,17.1 v 129.5 z m 221.7,0 H 225.6 v -129.5 c 0,-22.6 -18.4,-41.1 -41.1,-41.1 h -34.9 c -22.6,0 -41.1,18.4 -41.1,41.1 v 129.6 H 66 v -193.3 c 1.4,0.1 2.8,0.1 4.2,0.1 24.2,0 45.6,-12.3 58.2,-31 12.6,18.7 34,31 58.2,31 24.2,0 45.5,-12.3 58.2,-31 12.6,18.7 34,31 58.1,31 24.2,0 45.5,-12.3 58.1,-31 12.6,18.7 34,31 58.2,31 1.4,0 2.7,-0.1 4.1,-0.1 z m -4.1,-217.1 c -22.7,0 -41.6,-16.4 -45.4,-38 h 90.9 c -3.9,21.5 -22.8,38 -45.5,38 z"
             id="path5556" />
        </g>
      </g>
      <g
         style="fill:#5c3738;fill-opacity:1"
         id="g5562" />
      <g
         style="fill:#5c3738;fill-opacity:1"
         id="g5564" />
      <g
         style="fill:#5c3738;fill-opacity:1"
         id="g5566" />
      <g
         style="fill:#5c3738;fill-opacity:1"
         id="g5568" />
      <g
         style="fill:#5c3738;fill-opacity:1"
         id="g5570" />
      <g
         style="fill:#5c3738;fill-opacity:1"
         id="g5572" />
      <g
         style="fill:#5c3738;fill-opacity:1"
         id="g5574" />
      <g
         style="fill:#5c3738;fill-opacity:1"
         id="g5576" />
      <g
         style="fill:#5c3738;fill-opacity:1"
         id="g5578" />
      <g
         style="fill:#5c3738;fill-opacity:1"
         id="g5580" />
      <g
         style="fill:#5c3738;fill-opacity:1"
         id="g5582" />
      <g
         style="fill:#5c3738;fill-opacity:1"
         id="g5584" />
      <g
         style="fill:#5c3738;fill-opacity:1"
         id="g5586" />
      <g
         style="fill:#5c3738;fill-opacity:1"
         id="g5588" />
      <g
         style="fill:#5c3738;fill-opacity:1"
         id="g5590" />
    </g>
  </g>
</svg>
