<?xml version="1.0" encoding="UTF-8" standalone="no"?>
<!-- Created with Inkscape (http://www.inkscape.org/) -->

<svg
   xmlns:dc="http://purl.org/dc/elements/1.1/"
   xmlns:cc="http://creativecommons.org/ns#"
   xmlns:rdf="http://www.w3.org/1999/02/22-rdf-syntax-ns#"
   xmlns:svg="http://www.w3.org/2000/svg"
   xmlns="http://www.w3.org/2000/svg"
   xmlns:sodipodi="http://sodipodi.sourceforge.net/DTD/sodipodi-0.dtd"
   xmlns:inkscape="http://www.inkscape.org/namespaces/inkscape"
   width="60"
   height="60"
   viewBox="0 0 15.875 15.875"
   version="1.1"
   id="svg6240"
   inkscape:version="0.92.3 (2405546, 2018-03-11)"
   sodipodi:docname="write.svg">
  <defs
     id="defs6234" />
  <sodipodi:namedview
     id="base"
     pagecolor="#ffffff"
     bordercolor="#666666"
     borderopacity="1.0"
     inkscape:pageopacity="0.0"
     inkscape:pageshadow="2"
     inkscape:zoom="7.9195959"
     inkscape:cx="28.397351"
     inkscape:cy="33.649016"
     inkscape:document-units="mm"
     inkscape:current-layer="layer1"
     showgrid="false"
     units="px"
     inkscape:window-width="960"
     inkscape:window-height="1025"
     inkscape:window-x="960"
     inkscape:window-y="27"
     inkscape:window-maximized="0"
     showguides="true"
     inkscape:guide-bbox="true"
     inkscape:snap-global="false">
    <sodipodi:guide
       position="15.367998,2.4722431"
       orientation="0,1"
       id="guide6605"
       inkscape:locked="false" />
  </sodipodi:namedview>
  <metadata
     id="metadata6237">
    <rdf:RDF>
      <cc:Work
         rdf:about="">
        <dc:format>image/svg+xml</dc:format>
        <dc:type
           rdf:resource="http://purl.org/dc/dcmitype/StillImage" />
        <dc:title></dc:title>
      </cc:Work>
    </rdf:RDF>
  </metadata>
  <g
     inkscape:label="Layer 1"
     inkscape:groupmode="layer"
     id="layer1"
     transform="translate(0,-281.12498)">
    <g
       id="g5162"
       transform="matrix(0.14447605,0,0,0.14447605,3.9463762,286.50241)"
       style="opacity:0.50199998;fill:#ffffff;fill-opacity:1">
      <path
         id="path5107"
         d="m 52.618,2.631 c -3.51,-3.508 -9.219,-3.508 -12.729,0 L 3.827,38.693 C 3.81,38.71 3.8,38.731 3.785,38.749 3.764,38.773 3.746,38.799 3.727,38.825 3.674,38.899 3.633,38.978 3.602,39.064 3.593,39.09 3.58,39.113 3.573,39.139 3.57,39.149 3.564,39.159 3.561,39.169 L 0.026,54.019 C 0.01,54.086 0.006,54.154 0.004,54.221 0.004,54.234 0,54.246 0,54.259 c 0.001,0.114 0.026,0.225 0.065,0.332 0.009,0.025 0.019,0.047 0.03,0.071 0.049,0.107 0.11,0.21 0.196,0.296 0.095,0.095 0.207,0.168 0.328,0.218 0.121,0.05 0.25,0.075 0.379,0.075 0.077,0 0.155,-0.009 0.231,-0.027 l 14.85,-3.535 c 0.027,-0.006 0.051,-0.021 0.077,-0.03 0.034,-0.011 0.066,-0.024 0.099,-0.039 0.072,-0.033 0.139,-0.074 0.201,-0.123 0.024,-0.019 0.049,-0.033 0.072,-0.054 0.008,-0.008 0.018,-0.012 0.026,-0.02 L 52.617,15.36 c 3.51,-3.51 3.51,-9.22 0.001,-12.729 z m -1.414,1.414 c 2.488,2.489 2.7,6.397 0.65,9.137 L 42.067,3.395 c 2.741,-2.05 6.649,-1.838 9.137,0.65 z m -4.95,14.85 -9.9,-9.9 1.414,-1.414 9.9,9.9 z M 4.961,50.288 c -0.391,-0.391 -1.023,-0.391 -1.414,0 L 2.79,51.045 5.344,40.317 9.766,39.826 9.197,44.948 c -0.004,0.038 0.01,0.073 0.01,0.11 0,0.038 -0.014,0.072 -0.01,0.11 0.004,0.033 0.021,0.06 0.028,0.092 0.012,0.058 0.029,0.111 0.05,0.165 0.026,0.065 0.057,0.124 0.095,0.181 0.031,0.046 0.062,0.087 0.1,0.127 0.048,0.051 0.1,0.094 0.157,0.134 0.045,0.031 0.088,0.06 0.138,0.084 0.066,0.031 0.135,0.049 0.207,0.066 0.038,0.009 0.069,0.03 0.108,0.035 0.036,0.004 0.072,0.006 0.109,0.006 0,0 10e-4,0 10e-4,0 0,0 0.001,0 0.001,0 h 10e-4 c 0,0 10e-4,0 10e-4,0 0.036,0 0.073,-0.002 0.109,-0.006 l 5.122,-0.569 -0.491,4.422 -10.729,2.554 0.757,-0.757 c 0.39,-0.39 0.39,-1.023 0,-1.414 z M 17.511,44.809 39.889,22.43 c 0.391,-0.391 0.391,-1.023 0,-1.414 -0.391,-0.391 -1.023,-0.391 -1.414,0 l -22.378,22.379 -4.773,0.53 0.53,-4.773 22.38,-22.378 c 0.391,-0.391 0.391,-1.023 0,-1.414 -0.391,-0.391 -1.023,-0.391 -1.414,0 L 10.44,37.738 7.257,38.092 34.94,10.409 l 9.9,9.9 -27.683,27.683 z m 31.571,-28.742 -9.9,-9.9 1.415,-1.415 9.9,9.9 z"
         inkscape:connector-curvature="0"
         style="fill:#ffffff;fill-opacity:1" />
      <g
         id="g5109"
         style="fill:#ffffff;fill-opacity:1" />
      <g
         id="g5111"
         style="fill:#ffffff;fill-opacity:1" />
      <g
         id="g5113"
         style="fill:#ffffff;fill-opacity:1" />
      <g
         id="g5115"
         style="fill:#ffffff;fill-opacity:1" />
      <g
         id="g5117"
         style="fill:#ffffff;fill-opacity:1" />
      <g
         id="g5119"
         style="fill:#ffffff;fill-opacity:1" />
      <g
         id="g5121"
         style="fill:#ffffff;fill-opacity:1" />
      <g
         id="g5123"
         style="fill:#ffffff;fill-opacity:1" />
      <g
         id="g5125"
         style="fill:#ffffff;fill-opacity:1" />
      <g
         id="g5127"
         style="fill:#ffffff;fill-opacity:1" />
      <g
         id="g5129"
         style="fill:#ffffff;fill-opacity:1" />
      <g
         id="g5131"
         style="fill:#ffffff;fill-opacity:1" />
      <g
         id="g5133"
         style="fill:#ffffff;fill-opacity:1" />
      <g
         id="g5135"
         style="fill:#ffffff;fill-opacity:1" />
      <g
         id="g5137"
         style="fill:#ffffff;fill-opacity:1" />
    </g>
    <g
       style="fill:#5c3738;fill-opacity:1"
       transform="matrix(0.14447605,0,0,0.14447605,3.9463762,286.61934)"
       id="g6170">
      <path
         style="fill:#5c3738;fill-opacity:1"
         inkscape:connector-curvature="0"
         d="m 52.618,2.631 c -3.51,-3.508 -9.219,-3.508 -12.729,0 L 3.827,38.693 C 3.81,38.71 3.8,38.731 3.785,38.749 3.764,38.773 3.746,38.799 3.727,38.825 3.674,38.899 3.633,38.978 3.602,39.064 3.593,39.09 3.58,39.113 3.573,39.139 3.57,39.149 3.564,39.159 3.561,39.169 L 0.026,54.019 C 0.01,54.086 0.006,54.154 0.004,54.221 0.004,54.234 0,54.246 0,54.259 c 0.001,0.114 0.026,0.225 0.065,0.332 0.009,0.025 0.019,0.047 0.03,0.071 0.049,0.107 0.11,0.21 0.196,0.296 0.095,0.095 0.207,0.168 0.328,0.218 0.121,0.05 0.25,0.075 0.379,0.075 0.077,0 0.155,-0.009 0.231,-0.027 l 14.85,-3.535 c 0.027,-0.006 0.051,-0.021 0.077,-0.03 0.034,-0.011 0.066,-0.024 0.099,-0.039 0.072,-0.033 0.139,-0.074 0.201,-0.123 0.024,-0.019 0.049,-0.033 0.072,-0.054 0.008,-0.008 0.018,-0.012 0.026,-0.02 L 52.617,15.36 c 3.51,-3.51 3.51,-9.22 0.001,-12.729 z m -1.414,1.414 c 2.488,2.489 2.7,6.397 0.65,9.137 L 42.067,3.395 c 2.741,-2.05 6.649,-1.838 9.137,0.65 z m -4.95,14.85 -9.9,-9.9 1.414,-1.414 9.9,9.9 z M 4.961,50.288 c -0.391,-0.391 -1.023,-0.391 -1.414,0 L 2.79,51.045 5.344,40.317 9.766,39.826 9.197,44.948 c -0.004,0.038 0.01,0.073 0.01,0.11 0,0.038 -0.014,0.072 -0.01,0.11 0.004,0.033 0.021,0.06 0.028,0.092 0.012,0.058 0.029,0.111 0.05,0.165 0.026,0.065 0.057,0.124 0.095,0.181 0.031,0.046 0.062,0.087 0.1,0.127 0.048,0.051 0.1,0.094 0.157,0.134 0.045,0.031 0.088,0.06 0.138,0.084 0.066,0.031 0.135,0.049 0.207,0.066 0.038,0.009 0.069,0.03 0.108,0.035 0.036,0.004 0.072,0.006 0.109,0.006 0,0 10e-4,0 10e-4,0 0,0 0.001,0 0.001,0 h 10e-4 c 0,0 10e-4,0 10e-4,0 0.036,0 0.073,-0.002 0.109,-0.006 l 5.122,-0.569 -0.491,4.422 -10.729,2.554 0.757,-0.757 c 0.39,-0.39 0.39,-1.023 0,-1.414 z M 17.511,44.809 39.889,22.43 c 0.391,-0.391 0.391,-1.023 0,-1.414 -0.391,-0.391 -1.023,-0.391 -1.414,0 l -22.378,22.379 -4.773,0.53 0.53,-4.773 22.38,-22.378 c 0.391,-0.391 0.391,-1.023 0,-1.414 -0.391,-0.391 -1.023,-0.391 -1.414,0 L 10.44,37.738 7.257,38.092 34.94,10.409 l 9.9,9.9 -27.683,27.683 z m 31.571,-28.742 -9.9,-9.9 1.415,-1.415 9.9,9.9 z"
         id="path6138" />
      <g
         style="fill:#5c3738;fill-opacity:1"
         id="g6140" />
      <g
         style="fill:#5c3738;fill-opacity:1"
         id="g6142" />
      <g
         style="fill:#5c3738;fill-opacity:1"
         id="g6144" />
      <g
         style="fill:#5c3738;fill-opacity:1"
         id="g6146" />
      <g
         style="fill:#5c3738;fill-opacity:1"
         id="g6148" />
      <g
         style="fill:#5c3738;fill-opacity:1"
         id="g6150" />
      <g
         style="fill:#5c3738;fill-opacity:1"
         id="g6152" />
      <g
         style="fill:#5c3738;fill-opacity:1"
         id="g6154" />
      <g
         style="fill:#5c3738;fill-opacity:1"
         id="g6156" />
      <g
         style="fill:#5c3738;fill-opacity:1"
         id="g6158" />
      <g
         style="fill:#5c3738;fill-opacity:1"
         id="g6160" />
      <g
         style="fill:#5c3738;fill-opacity:1"
         id="g6162" />
      <g
         style="fill:#5c3738;fill-opacity:1"
         id="g6164" />
      <g
         style="fill:#5c3738;fill-opacity:1"
         id="g6166" />
      <g
         style="fill:#5c3738;fill-opacity:1"
         id="g6168" />
    </g>
  </g>
</svg>
